<svg width="24" height="24" viewBox="0 0 24 24" fill="none" xmlns="http://www.w3.org/2000/svg">
    <path fill="white" d="M19.0702 23.1143L12 18.1658L4.92975 23.1157C4.81726 23.1944 4.68535 23.2407 4.54839 23.2495C4.41142 23.2584 4.27465 23.2295 4.15297 23.166C4.0313 23.1025 3.92938 23.0068 3.85832 22.8894C3.78727 22.7719 3.7498 22.6373 3.75 22.5L3.75 4.35C3.75099 3.39553 4.13059 2.48043 4.80551 1.80551C5.48043 1.1306 6.39552 0.750993 7.35 0.75L16.65 0.75C17.6045 0.750993 18.5196 1.1306 19.1945 1.80551C19.8694 2.48043 20.249 3.39553 20.25 4.35L20.25 22.5C20.25 22.6989 20.171 22.8897 20.0303 23.0303C19.8897 23.171 19.6989 23.25 19.5 23.25C19.3462 23.2499 19.1962 23.2025 19.0702 23.1143ZM12.4297 16.6357Z"/>
</svg>
